# xmcd
#
# Track frame offsets:
#	150
#	6921
#	27184
#	45932
#	61449
#	80722
#	99705
#	111165
#	128546
#	146940
#	165503
#	180278
#	198010
#	216177
#	234902
#	249776
#	269784
#
# Disc length: 3813 seconds
#
# Revision: 1
# Processed by: cddbd v1.4PL0 Copyright (c) Steve Scherf et al.
# Submitted via: audiograbber 1.80
#
DISCID=e00ee311
DTITLE=Bloodshot - The Black Rose
DYEAR=1900
DGENRE=
TTITLE0=The Black Rose
TTITLE1=5 Times
TTITLE2=Wash Me Away
TTITLE3=Disappearance
TTITLE4=Pits Of Sacrifice
TTITLE5=Passage Ways
TTITLE6=Rip Through You (feat. JPD)
TTITLE7=Stigmata
TTITLE8=Burn Ya Face
TTITLE9=Morpheus - God Of Nightmares
TTITLE10=Death Is Certain (feat. Slinky)
TTITLE11=Hypnosis (feat. Torchur)
TTITLE12=Break It Open
TTITLE13=Crank The Chainsaw pt. 2
TTITLE14=Blood (feat. Mars)
TTITLE15=Is It Possible
TTITLE16=Bust Em Up pt. 2 (feat. Mr. Sche)
EXTD=Horrorcore (LC!)
EXTT0=
EXTT1=
EXTT2=
EXTT3=
EXTT4=
EXTT5=
EXTT6=
EXTT7=
EXTT8=
EXTT9=
EXTT10=
EXTT11=
EXTT12=
EXTT13=
EXTT14=
EXTT15=
EXTT16=
PLAYORDER=
